<?xml version="1.0" encoding="utf-8"?>
<!-- Generator: Adobe Illustrator 16.0.0, SVG Export Plug-In . SVG Version: 6.00 Build 0)  -->
<!DOCTYPE svg PUBLIC "-//W3C//DTD SVG 1.1//EN" "http://www.w3.org/Graphics/SVG/1.1/DTD/svg11.dtd">
<svg version="1.1" id="Capa_1" xmlns="http://www.w3.org/2000/svg" xmlns:xlink="http://www.w3.org/1999/xlink" x="0px" y="0px"
	 width="612px" height="792px" viewBox="0 0 612 792" enable-background="new 0 0 612 792" xml:space="preserve">
<g>
	<g>
		<g>
			<path d="M395.25,236.625c28.051,0,51-22.95,51-51.001c0-28.05-22.95-51-51-51c-28.051,0-51,22.95-51,51
				C344.25,213.675,367.199,236.625,395.25,236.625z"/>
			<path d="M127.5,402.375C57.375,402.375,0,459.75,0,529.875s57.375,127.5,127.5,127.5c70.126,0,127.501-57.375,127.501-127.5
				S197.624,402.375,127.5,402.375z M127.5,619.125c-49.725,0-89.25-39.525-89.25-89.25s39.525-89.25,89.25-89.25
				c49.726,0,89.251,39.525,89.251,89.25S177.226,619.125,127.5,619.125z"/>
			<path d="M483.225,375.599v-51c-38.25,0-70.125-14.024-93.075-36.975l-49.725-48.45c-7.65-8.925-20.4-15.3-34.426-15.3
				c-14.023,0-26.774,5.101-35.699,15.3L200.174,309.3c-8.926,8.925-15.3,21.675-15.3,35.7c0,14.026,6.374,26.775,15.3,36.975
				l80.325,71.4v127.5h51V421.5l-56.1-56.1l59.925-61.2l19.125,19.125C386.324,356.474,430.949,375.599,483.225,375.599z"/>
			<path d="M484.499,402.375c-70.125,0-127.5,57.375-127.5,127.5s57.375,127.5,127.5,127.5C554.625,657.375,612,600,612,529.875
				S554.625,402.375,484.499,402.375z M484.499,619.125c-49.725,0-89.25-39.525-89.25-89.25s39.525-89.25,89.25-89.25
				c49.726,0,89.251,39.525,89.251,89.25S534.225,619.125,484.499,619.125z"/>
		</g>
	</g>
</g>
</svg>
